<?xml version="1.0" encoding="UTF-8"?>
<svg width="1440px" height="1024px" viewBox="0 0 1440 1024" version="1.1" xmlns="http://www.w3.org/2000/svg" xmlns:xlink="http://www.w3.org/1999/xlink">
    <!-- Generator: Sketch 53 (72520) - https://sketchapp.com -->
    <title>Gupita</title>
    <desc>Created with Sketch.</desc>
    <g id="Gupita" stroke="none" stroke-width="1" fill="none" fill-rule="evenodd" opacity="0.8">
        <path d="M177.152,907 L70.656,907 C76.8,867.064 78.848,839.416 78.848,786.168 L78.848,238.328 C78.848,185.08 76.8,156.408 70.656,117.496 L177.152,117.496 C171.008,156.408 169.984,185.08 169.984,239.352 L169.984,400.12 C169.984,416.504 168.96,419.576 166.912,450.296 C217.088,371.448 283.648,333.56 376.832,333.56 C499.712,333.56 572.416,406.264 572.416,529.144 L572.416,787.192 C572.416,835.32 574.464,870.136 579.584,907 L471.04,907 C477.184,871.16 479.232,839.416 479.232,786.168 L479.232,548.6 C479.232,503.544 468.992,470.776 449.536,449.272 C429.056,426.744 398.336,414.456 361.472,414.456 C309.248,414.456 263.168,438.008 224.256,484.088 C196.608,516.856 182.272,543.48 169.984,586.488 L169.984,786.168 C169.984,831.224 172.032,866.04 177.152,907 Z M718.848,117.496 L832.512,117.496 L832.512,219.896 L718.848,219.896 L718.848,117.496 Z M720.896,343.8 L829.44,343.8 C824.32,380.664 822.272,410.36 822.272,465.656 L822.272,786.168 C822.272,835.32 824.32,863.992 829.44,907 L720.896,907 C726.016,861.944 728.064,833.272 728.064,786.168 L728.064,464.632 C728.064,413.432 726.016,379.64 720.896,343.8 Z M1110.016,704.248 L1021.952,704.248 C1024,678.648 1024,668.408 1024,644.856 L1024,592.632 L1013.76,233.208 C1012.736,189.176 1010.688,155.384 1006.592,117.496 L1126.4,117.496 C1122.304,156.408 1120.256,191.224 1119.232,233.208 L1108.992,592.632 C1107.968,609.016 1107.968,621.304 1106.944,631.544 L1106.944,646.904 C1106.944,659.192 1107.968,681.72 1110.016,704.248 Z M1123.328,907 L1010.688,907 L1010.688,798.456 L1123.328,798.456 L1123.328,907 Z" id="hi!" fill="#D7260C" fill-rule="nonzero"></path>
    </g>
</svg>