<?xml version="1.0" encoding="UTF-8"?>
<svg width="1335px" height="486px" viewBox="0 0 1335 486" version="1.1" xmlns="http://www.w3.org/2000/svg" xmlns:xlink="http://www.w3.org/1999/xlink">
    <!-- Generator: Sketch 53 (72520) - https://sketchapp.com -->
    <title>Group</title>
    <desc>Created with Sketch.</desc>
    <g id="Page-1" stroke="none" stroke-width="1" fill="none" fill-rule="evenodd" opacity="0.8">
        <g id="Gupita" transform="translate(-71.000000, -269.000000)" fill-rule="nonzero">
            <g id="Group" transform="translate(71.000000, 269.000000)">
                <path d="M65.4969819,486 L0,486 C3.77867203,461.416342 5.03822938,444.396887 5.03822938,411.618677 L5.03822938,74.381323 C5.03822938,41.6031128 3.77867203,23.9533074 0,0 L65.4969819,0 C61.7183099,23.9533074 61.0885312,41.6031128 61.0885312,75.0116732 L61.0885312,173.976654 C61.0885312,184.062257 60.4587525,185.953307 59.1991952,204.863813 C90.0583501,156.326848 130.993964,133.003891 188.303823,133.003891 C263.877264,133.003891 308.591549,177.758755 308.591549,253.400778 L308.591549,412.249027 C308.591549,441.875486 309.851107,463.307393 313,486 L246.243461,486 C250.022133,463.937743 251.28169,444.396887 251.28169,411.618677 L251.28169,265.377432 C251.28169,237.642023 244.983903,217.470817 233.018109,204.233463 C220.422535,190.365759 201.529175,182.801556 178.857143,182.801556 C146.738431,182.801556 118.39839,197.299611 94.4668008,225.66537 C77.4627767,245.836576 68.6458753,262.225681 61.0885312,288.700389 L61.0885312,411.618677 C61.0885312,439.354086 62.3480885,460.785992 65.4969819,486 Z M398,0 L468,0 L468,63 L398,63 L398,0 Z M399,140 L466,140 C462.839623,162.647273 461.575472,180.890909 461.575472,214.861818 L461.575472,411.767273 C461.575472,441.963636 462.839623,459.578182 466,486 L399,486 C402.160377,458.32 403.424528,440.705455 403.424528,411.767273 L403.424528,214.232727 C403.424528,182.778182 402.160377,162.018182 399,140 Z M638.880342,361 L584.487179,361 C585.752137,345.249564 585.752137,338.949389 585.752137,324.458988 L585.752137,292.328098 L579.42735,71.1919721 C578.794872,44.1012216 577.529915,23.3106457 575,0 L649,0 C646.470085,23.9406632 645.205128,45.3612565 644.57265,71.1919721 L638.247863,292.328098 C637.615385,302.408377 637.615385,309.968586 636.982906,316.268761 L636.982906,325.719023 C636.982906,333.279232 637.615385,347.139616 638.880342,361 Z M647,486 L578,486 L578,419 L647,419 L647,486 Z" id="hi!" fill="#D7260C"></path>
                <path d="M1099.656,131.616 L1102.872,131.616 C1102.584,133.248 1102.488,134.448 1102.488,136.608 L1102.488,162.288 C1102.488,164.496 1102.584,165.648 1102.872,167.28 L1099.656,167.28 C1099.944,165.648 1100.04,164.4 1100.04,162.288 L1100.04,136.608 C1100.04,134.544 1099.944,133.248 1099.656,131.616 Z M1113.96,131.616 L1113.96,135.312 C1113.96,138.624 1113.576,139.68 1111.848,141.024 L1110.696,139.872 C1112.184,138.912 1112.376,138.432 1112.424,135.312 L1110.216,135.312 L1110.216,131.616 L1113.96,131.616 Z M1123.848,142.224 L1123.848,145.296 C1123.848,145.728 1123.848,146.016 1123.752,147.072 C1124.856,143.808 1128.168,141.696 1132.152,141.696 C1134.888,141.696 1136.952,142.56 1138.344,144.24 C1138.968,145.056 1139.256,145.728 1139.688,147.312 C1140.504,145.776 1141.224,144.816 1142.136,144 C1144.008,142.368 1145.784,141.696 1148.328,141.696 C1153.848,141.696 1156.536,144.48 1156.536,150.288 L1156.536,162.336 C1156.536,164.64 1156.632,165.696 1156.872,167.28 L1153.8,167.28 C1154.04,165.696 1154.136,164.544 1154.136,162.288 L1154.136,150.672 C1154.136,145.92 1152.264,143.808 1148.088,143.808 C1143.624,143.808 1140.216,147.744 1140.216,152.88 L1140.216,162.336 C1140.216,164.64 1140.312,165.696 1140.552,167.28 L1137.48,167.28 C1137.72,165.696 1137.816,164.544 1137.816,162.288 L1137.816,150.672 C1137.816,146.208 1135.752,143.808 1131.96,143.808 C1127.256,143.808 1123.848,147.648 1123.848,152.88 L1123.848,162.288 C1123.848,164.256 1123.944,165.456 1124.184,167.28 L1121.16,167.28 C1121.4,165.6 1121.496,164.352 1121.496,162.288 L1121.496,147.216 C1121.496,145.104 1121.4,143.904 1121.16,142.224 L1123.848,142.224 Z M1196.136,173.424 L1198.248,171.936 C1198.968,172.992 1199.304,173.376 1200.072,173.952 C1201.944,175.44 1203.864,176.064 1206.408,176.064 C1211.112,176.064 1213.896,174.096 1215.096,169.92 C1215.48,168.576 1215.672,167.088 1215.72,165.024 C1215.768,163.872 1215.816,163.44 1215.912,161.904 C1213.992,165.792 1210.824,167.712 1206.216,167.712 C1199.112,167.712 1194.792,162.864 1194.792,154.896 C1194.792,146.832 1199.304,141.744 1206.408,141.744 C1210.92,141.744 1214.088,143.712 1215.912,147.6 C1215.816,146.784 1215.768,146.208 1215.768,145.488 L1215.768,142.224 L1218.408,142.224 C1218.168,144 1218.072,145.104 1218.072,147.312 L1218.072,165.072 C1218.072,174.048 1214.376,178.176 1206.264,178.176 C1201.896,178.176 1199.256,176.928 1196.136,173.424 Z M1197.288,154.896 C1197.288,161.616 1200.552,165.6 1206.12,165.6 C1211.928,165.6 1215.72,161.232 1215.72,154.512 C1215.72,147.888 1212.168,143.856 1206.408,143.856 C1200.744,143.856 1197.288,148.032 1197.288,154.896 Z M1244.04,167.28 L1244.04,163.488 C1244.04,162.912 1244.088,162.192 1244.184,161.328 C1242.408,165.504 1239,167.808 1234.488,167.808 C1229.064,167.808 1225.896,164.592 1225.896,159.216 L1225.896,147.216 C1225.896,145.296 1225.8,143.664 1225.56,142.224 L1228.68,142.224 C1228.44,143.664 1228.344,145.248 1228.344,147.216 L1228.344,158.688 C1228.344,161.04 1228.968,162.864 1230.12,164.016 C1231.224,165.072 1232.808,165.696 1234.584,165.696 C1236.36,165.696 1237.848,165.264 1239.288,164.352 C1241.784,162.768 1244.04,158.928 1244.04,156.336 L1244.04,147.216 C1244.04,145.344 1243.944,143.856 1243.704,142.224 L1246.776,142.224 C1246.536,143.76 1246.44,145.296 1246.44,147.216 L1246.44,162.288 C1246.44,164.208 1246.536,165.504 1246.824,167.28 L1244.04,167.28 Z M1256.664,142.224 L1256.664,145.488 C1256.664,146.112 1256.616,146.736 1256.52,147.6 C1258.2,144 1261.944,141.792 1266.312,141.792 C1273.32,141.792 1277.64,146.736 1277.64,154.752 C1277.64,162.768 1273.272,167.76 1266.312,167.76 C1261.944,167.76 1258.296,165.6 1256.52,162 C1256.664,163.296 1256.712,164.16 1256.712,165.36 L1256.712,172.704 C1256.712,174.672 1256.808,175.968 1257.048,177.696 L1254.024,177.696 C1254.264,175.92 1254.36,174.576 1254.36,172.752 L1254.36,147.312 C1254.36,145.2 1254.264,144 1254.024,142.224 L1256.664,142.224 Z M1275.144,154.656 C1275.144,147.888 1271.88,143.904 1266.312,143.904 C1260.408,143.904 1256.664,148.128 1256.664,154.848 C1256.664,161.424 1260.408,165.648 1266.264,165.648 C1271.832,165.648 1275.144,161.568 1275.144,154.656 Z M1283.592,131.616 L1287.096,131.616 L1287.096,135.024 L1283.592,135.024 L1283.592,131.616 Z M1283.784,142.224 L1286.856,142.224 C1286.616,143.856 1286.52,145.056 1286.52,147.264 L1286.52,162.288 C1286.52,164.256 1286.616,165.456 1286.856,167.28 L1283.784,167.28 C1284.024,165.264 1284.12,164.016 1284.12,162.288 L1284.12,147.216 C1284.12,145.104 1284.024,143.904 1283.784,142.224 Z M1297.512,144.336 L1295.544,144.336 C1293.912,144.336 1292.76,144.432 1291.224,144.624 L1291.224,141.936 C1292.52,142.176 1293.432,142.224 1295.544,142.224 L1297.512,142.224 L1297.512,140.208 C1297.512,138.384 1297.416,136.704 1297.176,135.216 L1300.248,135.216 C1300.008,136.608 1299.912,138.288 1299.912,140.208 L1299.912,142.224 L1302.36,142.224 C1304.616,142.224 1305.672,142.176 1307.304,141.936 L1307.304,144.624 C1305.72,144.384 1304.616,144.336 1302.312,144.336 L1299.912,144.336 L1299.912,162 C1299.912,163.008 1300.056,163.824 1300.248,164.256 C1300.632,165.072 1301.64,165.552 1302.84,165.552 C1304.136,165.552 1305.144,165.216 1306.824,164.16 L1307.928,166.56 C1306.008,167.328 1304.376,167.712 1302.696,167.712 C1300.584,167.712 1299.048,167.088 1298.28,165.84 C1297.752,164.976 1297.512,163.872 1297.512,162 L1297.512,144.336 Z M1328.904,167.28 L1328.904,163.536 C1326.936,165.36 1325.976,166.08 1324.392,166.752 C1322.856,167.376 1320.984,167.76 1319.256,167.76 C1314.456,167.76 1311.48,165.072 1311.48,160.848 C1311.48,156.768 1314.12,154.032 1319.016,152.976 C1321.656,152.4 1323.768,152.208 1328.904,152.064 L1328.904,148.704 C1328.904,145.488 1326.552,143.568 1322.616,143.568 C1319.784,143.568 1317.72,144.336 1316.328,145.92 C1315.704,146.64 1315.368,147.264 1314.888,148.752 L1312.392,148.128 C1313.16,146.112 1313.64,145.2 1314.504,144.288 C1316.28,142.416 1318.92,141.456 1322.328,141.456 C1324.92,141.456 1327.176,142.032 1328.52,142.992 C1330.248,144.24 1331.208,146.208 1331.208,148.608 L1331.208,162.336 C1331.208,164.256 1331.304,165.504 1331.592,167.28 L1328.904,167.28 Z M1328.904,157.632 L1328.904,154.176 C1323.672,154.272 1322.04,154.416 1319.64,154.992 C1315.944,155.856 1313.976,157.92 1313.976,160.896 C1313.976,163.776 1316.136,165.648 1319.4,165.648 C1321.752,165.648 1324.056,164.784 1326.168,163.2 C1327.416,162.24 1328.328,161.088 1328.616,160.176 C1328.808,159.6 1328.904,158.688 1328.904,157.632 Z M1177.848,215.28 L1177.848,211.536 C1175.88,213.36 1174.92,214.08 1173.336,214.752 C1171.8,215.376 1169.928,215.76 1168.2,215.76 C1163.4,215.76 1160.424,213.072 1160.424,208.848 C1160.424,204.768 1163.064,202.032 1167.96,200.976 C1170.6,200.4 1172.712,200.208 1177.848,200.064 L1177.848,196.704 C1177.848,193.488 1175.496,191.568 1171.56,191.568 C1168.728,191.568 1166.664,192.336 1165.272,193.92 C1164.648,194.64 1164.312,195.264 1163.832,196.752 L1161.336,196.128 C1162.104,194.112 1162.584,193.2 1163.448,192.288 C1165.224,190.416 1167.864,189.456 1171.272,189.456 C1173.864,189.456 1176.12,190.032 1177.464,190.992 C1179.192,192.24 1180.152,194.208 1180.152,196.608 L1180.152,210.336 C1180.152,212.256 1180.248,213.504 1180.536,215.28 L1177.848,215.28 Z M1177.848,205.632 L1177.848,202.176 C1172.616,202.272 1170.984,202.416 1168.584,202.992 C1164.888,203.856 1162.92,205.92 1162.92,208.896 C1162.92,211.776 1165.08,213.648 1168.344,213.648 C1170.696,213.648 1173,212.784 1175.112,211.2 C1176.36,210.24 1177.272,209.088 1177.56,208.176 C1177.752,207.6 1177.848,206.688 1177.848,205.632 Z M1223.256,215.28 L1223.256,212.64 C1223.256,211.68 1223.304,210.864 1223.448,209.76 C1221.672,213.552 1218.216,215.664 1213.656,215.664 C1206.648,215.664 1202.328,210.768 1202.328,202.704 C1202.328,194.736 1206.744,189.696 1213.752,189.696 C1218.168,189.696 1221.576,191.76 1223.448,195.504 C1223.304,194.256 1223.256,193.44 1223.256,192.144 L1223.256,184.608 C1223.256,182.736 1223.16,181.344 1222.92,179.616 L1225.944,179.616 C1225.704,181.344 1225.608,182.688 1225.608,184.56 L1225.608,210.192 C1225.608,212.4 1225.704,213.504 1225.944,215.28 L1223.256,215.28 Z M1204.824,202.752 C1204.824,209.616 1208.04,213.552 1213.656,213.552 C1219.608,213.552 1223.304,209.376 1223.304,202.656 C1223.304,196.032 1219.608,191.808 1213.752,191.808 C1208.184,191.808 1204.824,195.936 1204.824,202.752 Z M1233.096,179.616 L1236.6,179.616 L1236.6,183.024 L1233.096,183.024 L1233.096,179.616 Z M1233.288,190.224 L1236.36,190.224 C1236.12,191.856 1236.024,193.056 1236.024,195.264 L1236.024,210.288 C1236.024,212.256 1236.12,213.456 1236.36,215.28 L1233.288,215.28 C1233.528,213.264 1233.624,212.016 1233.624,210.288 L1233.624,195.216 C1233.624,193.104 1233.528,191.904 1233.288,190.224 Z M1243.896,221.424 L1246.008,219.936 C1246.728,220.992 1247.064,221.376 1247.832,221.952 C1249.704,223.44 1251.624,224.064 1254.168,224.064 C1258.872,224.064 1261.656,222.096 1262.856,217.92 C1263.24,216.576 1263.432,215.088 1263.48,213.024 C1263.528,211.872 1263.576,211.44 1263.672,209.904 C1261.752,213.792 1258.584,215.712 1253.976,215.712 C1246.872,215.712 1242.552,210.864 1242.552,202.896 C1242.552,194.832 1247.064,189.744 1254.168,189.744 C1258.68,189.744 1261.848,191.712 1263.672,195.6 C1263.576,194.784 1263.528,194.208 1263.528,193.488 L1263.528,190.224 L1266.168,190.224 C1265.928,192 1265.832,193.104 1265.832,195.312 L1265.832,213.072 C1265.832,222.048 1262.136,226.176 1254.024,226.176 C1249.656,226.176 1247.016,224.928 1243.896,221.424 Z M1245.048,202.896 C1245.048,209.616 1248.312,213.6 1253.88,213.6 C1259.688,213.6 1263.48,209.232 1263.48,202.512 C1263.48,195.888 1259.928,191.856 1254.168,191.856 C1248.504,191.856 1245.048,196.032 1245.048,202.896 Z M1273.32,179.616 L1276.824,179.616 L1276.824,183.024 L1273.32,183.024 L1273.32,179.616 Z M1273.512,190.224 L1276.584,190.224 C1276.344,191.856 1276.248,193.056 1276.248,195.264 L1276.248,210.288 C1276.248,212.256 1276.344,213.456 1276.584,215.28 L1273.512,215.28 C1273.752,213.264 1273.848,212.016 1273.848,210.288 L1273.848,195.216 C1273.848,193.104 1273.752,191.904 1273.512,190.224 Z M1287.24,192.336 L1285.272,192.336 C1283.64,192.336 1282.488,192.432 1280.952,192.624 L1280.952,189.936 C1282.248,190.176 1283.16,190.224 1285.272,190.224 L1287.24,190.224 L1287.24,188.208 C1287.24,186.384 1287.144,184.704 1286.904,183.216 L1289.976,183.216 C1289.736,184.608 1289.64,186.288 1289.64,188.208 L1289.64,190.224 L1292.088,190.224 C1294.344,190.224 1295.4,190.176 1297.032,189.936 L1297.032,192.624 C1295.448,192.384 1294.344,192.336 1292.04,192.336 L1289.64,192.336 L1289.64,210 C1289.64,211.008 1289.784,211.824 1289.976,212.256 C1290.36,213.072 1291.368,213.552 1292.568,213.552 C1293.864,213.552 1294.872,213.216 1296.552,212.16 L1297.656,214.56 C1295.736,215.328 1294.104,215.712 1292.424,215.712 C1290.312,215.712 1288.776,215.088 1288.008,213.84 C1287.48,212.976 1287.24,211.872 1287.24,210 L1287.24,192.336 Z M1318.632,215.28 L1318.632,211.536 C1316.664,213.36 1315.704,214.08 1314.12,214.752 C1312.584,215.376 1310.712,215.76 1308.984,215.76 C1304.184,215.76 1301.208,213.072 1301.208,208.848 C1301.208,204.768 1303.848,202.032 1308.744,200.976 C1311.384,200.4 1313.496,200.208 1318.632,200.064 L1318.632,196.704 C1318.632,193.488 1316.28,191.568 1312.344,191.568 C1309.512,191.568 1307.448,192.336 1306.056,193.92 C1305.432,194.64 1305.096,195.264 1304.616,196.752 L1302.12,196.128 C1302.888,194.112 1303.368,193.2 1304.232,192.288 C1306.008,190.416 1308.648,189.456 1312.056,189.456 C1314.648,189.456 1316.904,190.032 1318.248,190.992 C1319.976,192.24 1320.936,194.208 1320.936,196.608 L1320.936,210.336 C1320.936,212.256 1321.032,213.504 1321.32,215.28 L1318.632,215.28 Z M1318.632,205.632 L1318.632,202.176 C1313.4,202.272 1311.768,202.416 1309.368,202.992 C1305.672,203.856 1303.704,205.92 1303.704,208.896 C1303.704,211.776 1305.864,213.648 1309.128,213.648 C1311.48,213.648 1313.784,212.784 1315.896,211.2 C1317.144,210.24 1318.056,209.088 1318.344,208.176 C1318.536,207.6 1318.632,206.688 1318.632,205.632 Z M1328.328,179.616 L1331.4,179.616 C1331.16,181.248 1331.064,182.448 1331.064,184.656 L1331.064,210.288 C1331.064,212.304 1331.16,213.456 1331.4,215.28 L1328.328,215.28 C1328.568,213.648 1328.664,212.16 1328.664,210.288 L1328.664,184.608 C1328.664,182.496 1328.568,181.296 1328.328,179.616 Z M1160.856,238.224 L1160.856,241.488 C1160.856,242.112 1160.808,242.736 1160.712,243.6 C1162.392,240 1166.136,237.792 1170.504,237.792 C1177.512,237.792 1181.832,242.736 1181.832,250.752 C1181.832,258.768 1177.464,263.76 1170.504,263.76 C1166.136,263.76 1162.488,261.6 1160.712,258 C1160.856,259.296 1160.904,260.16 1160.904,261.36 L1160.904,268.704 C1160.904,270.672 1161,271.968 1161.24,273.696 L1158.216,273.696 C1158.456,271.92 1158.552,270.576 1158.552,268.752 L1158.552,243.312 C1158.552,241.2 1158.456,240 1158.216,238.224 L1160.856,238.224 Z M1179.336,250.656 C1179.336,243.888 1176.072,239.904 1170.504,239.904 C1164.6,239.904 1160.856,244.128 1160.856,250.848 C1160.856,257.424 1164.6,261.648 1170.456,261.648 C1176.024,261.648 1179.336,257.568 1179.336,250.656 Z M1202.76,238.224 L1201.992,240.768 C1200.216,240.24 1199.4,240.096 1198.344,240.096 C1195.848,240.096 1193.784,241.2 1192.248,243.312 C1191.144,244.752 1190.568,246.48 1190.568,248.112 L1190.568,258.288 C1190.568,260.256 1190.664,261.456 1190.904,263.28 L1187.832,263.28 C1188.072,261.312 1188.168,259.968 1188.168,258.288 L1188.168,243.216 C1188.168,241.104 1188.072,239.904 1187.832,238.224 L1190.568,238.224 L1190.568,242.64 C1192.584,239.184 1194.984,237.792 1198.968,237.792 C1200.024,237.792 1200.936,237.888 1202.76,238.224 Z M1218.12,263.808 C1210.632,263.808 1205.88,258.768 1205.88,250.8 C1205.88,242.784 1210.584,237.696 1217.976,237.696 C1225.368,237.696 1230.072,242.784 1230.072,250.704 C1230.072,258.672 1225.368,263.808 1218.12,263.808 Z M1218.12,239.808 C1212.072,239.808 1208.376,243.984 1208.376,250.8 C1208.376,257.52 1212.072,261.648 1218.024,261.648 C1223.976,261.648 1227.576,257.52 1227.576,250.704 C1227.576,244.032 1223.928,239.808 1218.12,239.808 Z M1255.8,263.28 L1255.8,260.64 C1255.8,259.68 1255.848,258.864 1255.992,257.76 C1254.216,261.552 1250.76,263.664 1246.2,263.664 C1239.192,263.664 1234.872,258.768 1234.872,250.704 C1234.872,242.736 1239.288,237.696 1246.296,237.696 C1250.712,237.696 1254.12,239.76 1255.992,243.504 C1255.848,242.256 1255.8,241.44 1255.8,240.144 L1255.8,232.608 C1255.8,230.736 1255.704,229.344 1255.464,227.616 L1258.488,227.616 C1258.248,229.344 1258.152,230.688 1258.152,232.56 L1258.152,258.192 C1258.152,260.4 1258.248,261.504 1258.488,263.28 L1255.8,263.28 Z M1237.368,250.752 C1237.368,257.616 1240.584,261.552 1246.2,261.552 C1252.152,261.552 1255.848,257.376 1255.848,250.656 C1255.848,244.032 1252.152,239.808 1246.296,239.808 C1240.728,239.808 1237.368,243.936 1237.368,250.752 Z M1284.12,263.28 L1284.12,259.488 C1284.12,258.912 1284.168,258.192 1284.264,257.328 C1282.488,261.504 1279.08,263.808 1274.568,263.808 C1269.144,263.808 1265.976,260.592 1265.976,255.216 L1265.976,243.216 C1265.976,241.296 1265.88,239.664 1265.64,238.224 L1268.76,238.224 C1268.52,239.664 1268.424,241.248 1268.424,243.216 L1268.424,254.688 C1268.424,257.04 1269.048,258.864 1270.2,260.016 C1271.304,261.072 1272.888,261.696 1274.664,261.696 C1276.44,261.696 1277.928,261.264 1279.368,260.352 C1281.864,258.768 1284.12,254.928 1284.12,252.336 L1284.12,243.216 C1284.12,241.344 1284.024,239.856 1283.784,238.224 L1286.856,238.224 C1286.616,239.76 1286.52,241.296 1286.52,243.216 L1286.52,258.288 C1286.52,260.208 1286.616,261.504 1286.904,263.28 L1284.12,263.28 Z M1314.504,244.56 L1312.2,245.472 C1310.76,241.584 1308.312,239.76 1304.52,239.76 C1298.952,239.76 1295.4,244.08 1295.4,250.8 C1295.4,257.424 1299,261.6 1304.76,261.6 C1308.744,261.6 1311.192,259.728 1312.488,255.792 L1314.84,256.656 C1314.168,258.24 1313.688,259.152 1312.872,260.112 C1310.952,262.56 1308.072,263.808 1304.52,263.808 C1297.416,263.808 1292.904,258.768 1292.904,250.896 C1292.904,242.832 1297.368,237.648 1304.28,237.648 C1307.928,237.648 1310.856,239.04 1312.872,241.68 C1313.496,242.544 1313.928,243.216 1314.504,244.56 Z M1324.008,240.336 L1322.04,240.336 C1320.408,240.336 1319.256,240.432 1317.72,240.624 L1317.72,237.936 C1319.016,238.176 1319.928,238.224 1322.04,238.224 L1324.008,238.224 L1324.008,236.208 C1324.008,234.384 1323.912,232.704 1323.672,231.216 L1326.744,231.216 C1326.504,232.608 1326.408,234.288 1326.408,236.208 L1326.408,238.224 L1328.856,238.224 C1331.112,238.224 1332.168,238.176 1333.8,237.936 L1333.8,240.624 C1332.216,240.384 1331.112,240.336 1328.808,240.336 L1326.408,240.336 L1326.408,258 C1326.408,259.008 1326.552,259.824 1326.744,260.256 C1327.128,261.072 1328.136,261.552 1329.336,261.552 C1330.632,261.552 1331.64,261.216 1333.32,260.16 L1334.424,262.56 C1332.504,263.328 1330.872,263.712 1329.192,263.712 C1327.08,263.712 1325.544,263.088 1324.776,261.84 C1324.248,260.976 1324.008,259.872 1324.008,258 L1324.008,240.336 Z M1162.104,311.28 L1162.104,308.64 C1162.104,307.68 1162.152,306.864 1162.296,305.76 C1160.52,309.552 1157.064,311.664 1152.504,311.664 C1145.496,311.664 1141.176,306.768 1141.176,298.704 C1141.176,290.736 1145.592,285.696 1152.6,285.696 C1157.016,285.696 1160.424,287.76 1162.296,291.504 C1162.152,290.256 1162.104,289.44 1162.104,288.144 L1162.104,280.608 C1162.104,278.736 1162.008,277.344 1161.768,275.616 L1164.792,275.616 C1164.552,277.344 1164.456,278.688 1164.456,280.56 L1164.456,306.192 C1164.456,308.4 1164.552,309.504 1164.792,311.28 L1162.104,311.28 Z M1143.672,298.752 C1143.672,305.616 1146.888,309.552 1152.504,309.552 C1158.456,309.552 1162.152,305.376 1162.152,298.656 C1162.152,292.032 1158.456,287.808 1152.6,287.808 C1147.032,287.808 1143.672,291.936 1143.672,298.752 Z M1193.112,298.8 L1173.24,298.8 C1173.384,302.448 1173.912,304.224 1175.256,306.192 C1176.84,308.496 1179.384,309.744 1182.36,309.744 C1185.048,309.744 1187.304,308.784 1188.984,306.816 C1189.752,305.952 1190.088,305.328 1190.664,303.792 L1192.968,304.896 C1192.056,306.816 1191.528,307.632 1190.472,308.64 C1188.312,310.8 1185.528,311.856 1182.312,311.856 C1175.256,311.856 1170.792,306.816 1170.792,298.8 C1170.792,290.88 1175.208,285.696 1181.928,285.696 C1186.008,285.696 1189.176,287.472 1191.096,290.736 C1192.44,293.04 1192.92,294.912 1193.112,298.8 Z M1173.384,296.64 L1190.472,296.64 C1190.232,294.096 1189.752,292.704 1188.552,291.12 C1187.016,288.96 1184.616,287.808 1181.832,287.808 C1179,287.808 1176.84,288.96 1175.256,291.264 C1174.2,292.8 1173.768,294.144 1173.384,296.64 Z M1197.672,304.656 L1200.36,304.08 C1200.648,305.904 1201.08,306.864 1202.088,307.824 C1203.336,308.976 1205.448,309.6 1208.04,309.6 C1212.504,309.6 1215.336,307.632 1215.336,304.512 C1215.336,301.584 1213.944,300.624 1207.8,299.376 C1203.816,298.56 1201.992,297.888 1200.552,296.688 C1199.4,295.728 1198.776,294.24 1198.776,292.512 C1198.776,288.384 1202.376,285.648 1207.656,285.648 C1210.536,285.648 1212.84,286.368 1214.424,287.712 C1215.672,288.72 1216.344,289.824 1216.92,291.888 L1214.376,292.464 C1214.088,291.072 1213.8,290.448 1213.08,289.728 C1211.832,288.432 1210.008,287.76 1207.752,287.76 C1203.96,287.76 1201.272,289.728 1201.272,292.56 C1201.272,294 1202.088,295.104 1203.672,295.776 C1204.776,296.256 1206.072,296.64 1208.52,297.216 C1212.6,298.128 1213.896,298.56 1215.144,299.328 C1216.968,300.48 1217.832,302.16 1217.832,304.464 C1217.832,308.976 1214.04,311.76 1207.848,311.76 C1203.864,311.76 1200.696,310.512 1199.064,308.304 C1198.392,307.344 1198.056,306.528 1197.672,304.656 Z M1223.544,275.616 L1227.048,275.616 L1227.048,279.024 L1223.544,279.024 L1223.544,275.616 Z M1223.736,286.224 L1226.808,286.224 C1226.568,287.856 1226.472,289.056 1226.472,291.264 L1226.472,306.288 C1226.472,308.256 1226.568,309.456 1226.808,311.28 L1223.736,311.28 C1223.976,309.264 1224.072,308.016 1224.072,306.288 L1224.072,291.216 C1224.072,289.104 1223.976,287.904 1223.736,286.224 Z M1234.344,317.424 L1236.456,315.936 C1237.176,316.992 1237.512,317.376 1238.28,317.952 C1240.152,319.44 1242.072,320.064 1244.616,320.064 C1249.32,320.064 1252.104,318.096 1253.304,313.92 C1253.688,312.576 1253.88,311.088 1253.928,309.024 C1253.976,307.872 1254.024,307.44 1254.12,305.904 C1252.2,309.792 1249.032,311.712 1244.424,311.712 C1237.32,311.712 1233,306.864 1233,298.896 C1233,290.832 1237.512,285.744 1244.616,285.744 C1249.128,285.744 1252.296,287.712 1254.12,291.6 C1254.024,290.784 1253.976,290.208 1253.976,289.488 L1253.976,286.224 L1256.616,286.224 C1256.376,288 1256.28,289.104 1256.28,291.312 L1256.28,309.072 C1256.28,318.048 1252.584,322.176 1244.472,322.176 C1240.104,322.176 1237.464,320.928 1234.344,317.424 Z M1235.496,298.896 C1235.496,305.616 1238.76,309.6 1244.328,309.6 C1250.136,309.6 1253.928,305.232 1253.928,298.512 C1253.928,291.888 1250.376,287.856 1244.616,287.856 C1238.952,287.856 1235.496,292.032 1235.496,298.896 Z M1266.552,286.224 L1266.552,290.16 C1266.552,290.784 1266.504,291.408 1266.408,292.272 C1266.984,290.832 1267.416,290.112 1268.328,289.104 C1270.392,286.8 1272.888,285.696 1276.152,285.696 C1281.528,285.696 1284.744,288.912 1284.744,294.288 L1284.744,306.336 C1284.744,308.64 1284.84,309.792 1285.08,311.28 L1282.008,311.28 C1282.248,309.456 1282.344,308.208 1282.344,306.288 L1282.344,294.816 C1282.344,290.208 1280.04,287.76 1275.72,287.76 C1274.088,287.76 1272.216,288.432 1270.872,289.488 C1268.472,291.36 1266.552,294.768 1266.552,297.168 L1266.552,306.288 C1266.552,308.256 1266.648,309.456 1266.888,311.28 L1263.816,311.28 C1264.104,309.552 1264.2,308.256 1264.2,306.288 L1264.2,291.216 C1264.2,289.392 1264.104,288.048 1263.816,286.224 L1266.552,286.224 Z M1313.352,298.8 L1293.48,298.8 C1293.624,302.448 1294.152,304.224 1295.496,306.192 C1297.08,308.496 1299.624,309.744 1302.6,309.744 C1305.288,309.744 1307.544,308.784 1309.224,306.816 C1309.992,305.952 1310.328,305.328 1310.904,303.792 L1313.208,304.896 C1312.296,306.816 1311.768,307.632 1310.712,308.64 C1308.552,310.8 1305.768,311.856 1302.552,311.856 C1295.496,311.856 1291.032,306.816 1291.032,298.8 C1291.032,290.88 1295.448,285.696 1302.168,285.696 C1306.248,285.696 1309.416,287.472 1311.336,290.736 C1312.68,293.04 1313.16,294.912 1313.352,298.8 Z M1293.624,296.64 L1310.712,296.64 C1310.472,294.096 1309.992,292.704 1308.792,291.12 C1307.256,288.96 1304.856,287.808 1302.072,287.808 C1299.24,287.808 1297.08,288.96 1295.496,291.264 C1294.44,292.8 1294.008,294.144 1293.624,296.64 Z M1334.28,286.224 L1333.512,288.768 C1331.736,288.24 1330.92,288.096 1329.864,288.096 C1327.368,288.096 1325.304,289.2 1323.768,291.312 C1322.664,292.752 1322.088,294.48 1322.088,296.112 L1322.088,306.288 C1322.088,308.256 1322.184,309.456 1322.424,311.28 L1319.352,311.28 C1319.592,309.312 1319.688,307.968 1319.688,306.288 L1319.688,291.216 C1319.688,289.104 1319.592,287.904 1319.352,286.224 L1322.088,286.224 L1322.088,290.64 C1324.104,287.184 1326.504,285.792 1330.488,285.792 C1331.544,285.792 1332.456,285.888 1334.28,286.224 Z" id="I’mgupitaadigitalproductdesigner" fill="#192B1F"></path>
            </g>
        </g>
    </g>
</svg>